<svg width="36" height="36" viewBox="0 0 36 36" fill="none" xmlns="http://www.w3.org/2000/svg">
<circle cx="18.3296" cy="17.6703" r="17.1703" stroke="#6272B1"/>
<path d="M18 9.67078C15.9007 9.64845 13.8788 10.4995 12.3787 12.0368C10.8786 13.5741 10.023 15.6719 9.99997 17.8691C10.0081 19.6056 10.5417 21.2947 11.5244 22.6939C12.507 24.093 13.888 25.1302 15.4691 25.6564C15.8691 25.7326 16.0145 25.4814 16.0145 25.2606C16.0145 25.0399 16.0145 24.5527 16.0145 23.8676C13.7891 24.3624 13.3163 22.7714 13.3163 22.7714C13.1682 22.272 12.8532 21.845 12.4291 21.5687C11.7018 21.0663 12.4872 21.0739 12.4872 21.0739C12.7386 21.1091 12.9791 21.2034 13.1907 21.3497C13.4023 21.496 13.5795 21.6906 13.7091 21.9188C13.9348 22.3285 14.3051 22.629 14.7403 22.7557C15.1756 22.8824 15.641 22.8252 16.0363 22.5963C16.077 22.1795 16.2573 21.7911 16.5454 21.5002C14.7709 21.2946 12.9091 20.5943 12.9091 17.4505C12.8932 16.6304 13.1827 15.836 13.7163 15.2353C13.4733 14.5312 13.502 13.7557 13.7963 13.0734C13.7963 13.0734 14.4727 12.8527 15.9782 13.9108C17.2886 13.5453 18.6677 13.5453 19.9782 13.9108C21.5054 12.8527 22.16 13.0734 22.16 13.0734C22.4543 13.7557 22.483 14.5312 22.24 15.2353C22.786 15.825 23.0912 16.614 23.0909 17.4352C23.0909 20.5867 21.2145 21.2794 19.4545 21.4849C19.6472 21.6808 19.7961 21.9189 19.8904 22.1821C19.9847 22.4454 20.0221 22.7272 20 23.0074V25.253C20 25.253 20.1454 25.7326 20.5454 25.6488C22.122 25.1193 23.4983 24.0819 24.4779 22.6847C25.4575 21.2876 25.9902 19.6021 26 17.8691C25.9769 15.6719 25.1214 13.5741 23.6213 12.0368C22.1211 10.4995 20.0993 9.64845 18 9.67078Z" fill="#6272B1"/>
</svg>
