<svg width="36" height="36" viewBox="0 0 36 36" fill="none" xmlns="http://www.w3.org/2000/svg">
<circle cx="18" cy="17.6703" r="17.1703" stroke="#6272B1"/>
<path d="M20.8 14.4703C20.1187 14.468 19.4436 14.6 18.8134 14.8589C18.1832 15.1177 17.6102 15.4982 17.1272 15.9787C16.6443 16.4593 16.2608 17.0303 15.9987 17.6591C15.7366 18.288 15.6011 18.9624 15.6 19.6437V24.8703C15.6 25.0825 15.6843 25.286 15.8343 25.436C15.9843 25.5861 16.1878 25.6703 16.4 25.6703H18.2666C18.4788 25.6703 18.6823 25.5861 18.8323 25.436C18.9824 25.286 19.0666 25.0825 19.0666 24.8703V19.6437C19.0665 19.4014 19.1174 19.1617 19.216 18.9404C19.3146 18.7191 19.4588 18.5211 19.6391 18.3592C19.8195 18.1973 20.0319 18.0753 20.2625 18.001C20.4932 17.9267 20.7369 17.9019 20.9778 17.9281C21.4098 17.9825 21.8068 18.1936 22.0935 18.5213C22.3802 18.849 22.5367 19.2705 22.5333 19.7059V24.8703C22.5333 25.0825 22.6176 25.286 22.7676 25.436C22.9176 25.5861 23.1211 25.6703 23.3333 25.6703H25.2C25.4121 25.6703 25.6156 25.5861 25.7657 25.436C25.9157 25.286 26 25.0825 26 24.8703V19.6437C25.9988 18.9624 25.8633 18.288 25.6012 17.6591C25.3392 17.0303 24.9557 16.4593 24.4727 15.9787C23.9897 15.4982 23.4167 15.1177 22.7865 14.8589C22.1563 14.6 21.4813 14.468 20.8 14.4703Z" fill="#6272B1"/>
<path d="M13.2 15.2704H10.8C10.3581 15.2704 9.99997 15.6285 9.99997 16.0704V24.8704C9.99997 25.3122 10.3581 25.6703 10.8 25.6703H13.2C13.6418 25.6703 14 25.3122 14 24.8704V16.0704C14 15.6285 13.6418 15.2704 13.2 15.2704Z" fill="#6272B1"/>
<path d="M12 13.6703C13.1046 13.6703 14 12.7749 14 11.6703C14 10.5658 13.1046 9.67035 12 9.67035C10.8954 9.67035 10 10.5658 10 11.6703C10 12.7749 10.8954 13.6703 12 13.6703Z" fill="#6272B1"/>
</svg>
