<svg width="36" height="36" viewBox="0 0 36 36" fill="none" xmlns="http://www.w3.org/2000/svg">
<circle cx="17.6703" cy="17.6703" r="17.1703" stroke="#6272B1"/>
<path d="M14.5093 25.6642C15.8229 25.7136 17.1319 25.4662 18.359 24.9366C19.5861 24.407 20.7065 23.6058 21.6538 22.5806C22.6012 21.5553 23.3564 20.3267 23.8747 18.9673C24.393 17.608 24.6639 16.1455 24.6715 14.6663C25.2735 13.8278 25.7204 12.8624 25.9862 11.8268C26.006 11.745 26.0044 11.6585 25.9816 11.5776C25.9587 11.4968 25.9156 11.4251 25.8574 11.3713C25.7992 11.3174 25.7284 11.2836 25.6536 11.2739C25.5787 11.2643 25.5029 11.2792 25.4354 11.3169C25.1205 11.4875 24.766 11.5426 24.4218 11.4745C24.0775 11.4063 23.761 11.2183 23.5167 10.937C23.2049 10.5526 22.8277 10.2426 22.4074 10.0254C21.9872 9.80812 21.5325 9.688 21.0703 9.67215C20.6081 9.6563 20.1477 9.74504 19.7165 9.93311C19.2853 10.1212 18.892 10.4047 18.56 10.767C18.1053 11.2626 17.7723 11.8821 17.5933 12.5653C17.4143 13.2486 17.3954 13.9723 17.5384 14.6663C14.5626 14.8662 12.5195 13.2765 10.8851 11.0969C10.836 11.0344 10.7717 10.9892 10.7002 10.967C10.6287 10.9449 10.553 10.9466 10.4823 10.972C10.4117 10.9975 10.3491 11.0455 10.3023 11.1103C10.2555 11.1751 10.2265 11.2539 10.2188 11.3369C9.90745 13.281 10.1321 15.2857 10.8625 17.0819C11.5929 18.8781 12.7942 20.3796 14.305 21.385C13.292 22.6926 11.8695 23.5092 10.3343 23.6645C10.2521 23.6799 10.1761 23.7238 10.1172 23.7901C10.0582 23.8565 10.0191 23.9419 10.0054 24.0344C9.9917 24.127 10.0041 24.2221 10.0407 24.3063C10.0774 24.3906 10.1366 24.4598 10.2099 24.5044C11.5455 25.2556 13.0163 25.6524 14.5093 25.6642Z" fill="#6272B1"/>
</svg>
